<?xml version="1.0" encoding="utf-8"?>
<!-- Generator: Adobe Illustrator 22.0.1, SVG Export Plug-In . SVG Version: 6.00 Build 0)  -->
<svg version="1.1" id="Layer_1" xmlns="http://www.w3.org/2000/svg" xmlns:xlink="http://www.w3.org/1999/xlink" x="0px" y="0px"
	 viewBox="0 0 200 200" style="enable-background:new 0 0 200 200;" xml:space="preserve">
<style type="text/css">
	.st0{fill:#FF9E1B;}
	.st1{opacity:0.1;enable-background:new    ;}
	.st2{fill:#F8F8F8;}
</style>
<g>
	<circle class="st0" cx="100" cy="100" r="100"/>
	<path class="st1" d="M199.1,113.5c-6,44.9-41.8,80.3-86.9,85.8l-44.6-44.6c1.1-4,0.2-81.1-0.3-97L89,42.6l36.8,40.5l0-9.1L111,56.9
		l22.7-8.8L199.1,113.5z"/>
	<path class="st2" d="M58.9,128.4c0,7.7,0.4,13.1,1,16.2c0.7,3.1,2,5.5,3.9,7.4c1.9,1.9,4.6,3.3,8.2,4.4c2.4,0.7,6.3,1.1,11.5,1.1
		H89v-14.3c-4.3,0-9.4-0.3-10.8-0.8c-1.3-0.5-2.3-1.3-2.9-2.3c-0.6-1-0.9-2.7-1-5.2c-0.3-36.5-0.6-31.5,0-68.8c0-3,0.3-5,0.8-6
		c0.5-1,1.4-1.7,2.7-2.3c1.3-0.5,6.6-0.8,11.1-0.8V42.6h-5.5c-5.4,0-9.5,0.4-12.4,1.3c-2.9,0.8-5.3,2.3-7.2,4.3c-2,2-3.3,4.5-4,7.4
		c-0.7,2.9-1,7.5-1,13.8C58.9,97.7,58.9,101.1,58.9,128.4z M141.1,128.4c0,7.7-0.3,13.1-1,16.2c-0.7,3.1-2,5.5-3.9,7.4
		c-1.9,1.9-4.6,3.3-8.2,4.4c-2.4,0.7-6.3,1.1-11.5,1.1H111v-14.3c4.3,0,9.4-0.3,10.8-0.8c1.3-0.5,2.3-1.3,2.9-2.3
		c0.6-1,0.9-2.7,1-5.2c0.3-36.5,0.6-31.5,0-68.8c0-3-0.3-5-0.8-6c-0.5-1-1.4-1.7-2.7-2.3c-1.3-0.5-6.6-0.8-11.1-0.8V42.6h5.5
		c5.4,0,9.5,0.4,12.4,1.3c2.9,0.8,5.3,2.3,7.2,4.3c2,2,3.3,4.5,4,7.4c0.7,2.9,1,7.5,1,13.8C141.1,97.7,141.1,101.1,141.1,128.4z"/>
</g>
</svg>
