<?xml version="1.0" encoding="utf-8"?>
<!-- Generator: Adobe Illustrator 22.0.1, SVG Export Plug-In . SVG Version: 6.00 Build 0)  -->
<svg version="1.1" id="Layer_1" xmlns="http://www.w3.org/2000/svg" xmlns:xlink="http://www.w3.org/1999/xlink" x="0px" y="0px"
	 viewBox="0 0 200 200" style="enable-background:new 0 0 200 200;" xml:space="preserve">
<style type="text/css">
	.st0{fill:#00205B;}
	.st1{opacity:0.1;enable-background:new    ;}
	.st2{fill:#FFFFFF;}
</style>
<g>
	<path class="st0" d="M0,100c0,55.2,44.8,100,100,100c55.2,0,100-44.8,100-100C200,44.8,155.2,0,100,0C44.8,0,0,44.8,0,100z"/>
	<path class="st1" d="M199.1,113.3c-0.1,0-77.6-77.6-77.8-77.8c-0.5-0.7-1.3-1.1-2.2-1.1H80.9c-1.5,0-2.7,1.2-2.7,2.7v68.4H45.3
		c-1.1,0-2.1,0.7-2.5,1.7c-0.4,1-0.2,2.2,0.6,3c0,0,54.7,54.7,54.7,54.7c0,0,0.6,0.6,0.6,0.6c0,0,29.8,29.8,29.8,29.8l0.5,0.5
		C166,184.6,193.9,152.5,199.1,113.3z"/>
	<path class="st2" d="M157.2,107.1c-0.4-1-1.4-1.7-2.5-1.7h-32.8V37.1c0-1.5-1.2-2.7-2.7-2.7H80.9c-1.5,0-2.7,1.2-2.7,2.7v68.4H45.3
		c-1.1,0-2.1,0.7-2.5,1.7c-0.4,1-0.2,2.2,0.6,3l54.7,54.7c0.5,0.5,1.2,0.8,1.9,0.8s1.4-0.3,1.9-0.8l54.7-54.7
		C157.4,109.3,157.6,108.2,157.2,107.1z M100,159l-48.1-48.1h29c1.5,0,2.7-1.2,2.7-2.7V39.8h32.8v68.4c0,1.5,1.2,2.7,2.7,2.7h29
		L100,159z"/>
</g>
</svg>
