<?xml version="1.0" encoding="utf-8"?>
<!-- Generator: Adobe Illustrator 22.0.1, SVG Export Plug-In . SVG Version: 6.00 Build 0)  -->
<svg version="1.1" id="Layer_1" xmlns="http://www.w3.org/2000/svg" xmlns:xlink="http://www.w3.org/1999/xlink" x="0px" y="0px"
	 viewBox="0 0 200 60" style="enable-background:new 0 0 200 60;" xml:space="preserve">
<style type="text/css">
	.st0{fill:#FF9E1B;}
</style>
<g>
	<path class="st0" d="M21,5.8h-7.5v23.8h-0.8V5.8H5.1L5,5.7L5.2,5h15.9l0.1,0.2L21,5.8z"/>
	<path class="st0" d="M38.3,29.6h-12V5h11.9l0.1,0.2l-0.2,0.6H27.1v10.7h9.2l0.1,0.2l-0.2,0.6h-9.1v11.6h11.3l0.1,0.2L38.3,29.6z"/>
	<path class="st0" d="M54.4,29.6H43.6V5h0.8v23.8h10.1l0.1,0.2L54.4,29.6z"/>
	<path class="st0" d="M70.8,29.6h-12V5h11.9l0.1,0.2l-0.2,0.6H59.6v10.7h9.2l0.1,0.2l-0.2,0.6h-9.1v11.6h11.3L71,29L70.8,29.6z"/>
	<path class="st0" d="M76.9,16.9h8.8l0.1,0.2l-0.2,0.6h-8.7v12h-0.8V5h11.5l0.1,0.2l-0.2,0.6H76.9V16.9z"/>
	<path class="st0" d="M107.9,20.8c0.2,5.7-3,9-8.5,9c-5.5,0-8.5-3.2-8.5-9V5h0.8v15.7c0,5.3,2.7,8.2,7.7,8.2c5,0,7.7-2.9,7.7-8.2V5
		h0.8V20.8z"/>
	<path class="st0" d="M132.5,29.6h-0.7l-15.6-23h-0.2l0,15.3v7.7h-0.8v-7.3l0-17.3h0.7l15.6,23h0.2l0.1-22.9l0.8-0.1l0,17.8
		L132.5,29.6z"/>
	<path class="st0" d="M140.9,29.6V5h0.8v24.6H140.9z M143.9,16.5c3.7,4.4,7.9,9,12,12.9v0.2c-0.1,0.2-0.3,0.2-0.5,0.3l-0.2,0
		c-4.3-4.2-8.6-8.7-12.4-13.3v-0.1l9.6-9.6l1.7-1.8h1.2L143.9,16.5z"/>
	<path class="st0" d="M172.3,29.6h-12V5h11.9l0.1,0.2l-0.2,0.6h-11.1v10.7h9.2l0.1,0.2l-0.2,0.6h-9.1v11.6h11.3l0.1,0.2L172.3,29.6z
		"/>
	<path class="st0" d="M194.9,29.6h-0.7l-15.6-23h-0.2l0,15.3v7.7h-0.8v-7.3l0-17.3h0.7L194,28h0.2l0.1-22.9L195,5l0,17.8L194.9,29.6
		z"/>
</g>
<g>
	<path class="st0" d="M18.8,35.2L18,39.4l-0.8,0.3c-1.6-1-3.3-1.7-4.5-1.7c-1.4,0-2.3,0.8-2.3,1.7c0,2.9,8.7,2.7,8.7,8.7
		c0,3.6-3.1,6.5-8,6.5c-2,0-4.2-0.4-6.3-1.3l0.7-4.6l0.5-0.3c1.9,1.6,4.2,2.3,5.6,2.3c1.7,0,2.4-0.9,2.4-1.8c0-3-8.7-2.7-8.7-8.8
		c0-3.7,3.2-6.5,7.8-6.5C14.9,34.1,16.8,34.4,18.8,35.2z"/>
	<path class="st0" d="M36,35.2l-0.9,4.2l-0.3,0.2c-1.2-0.8-2.8-1.3-4.2-1.3c-3,0-4.4,1.8-4.4,5.9c0,4.5,1.6,6.6,4.7,6.6
		c1.4,0,3-0.4,4.3-1.1l0.4,0.3l-0.4,4.2C33.6,54.7,32,55,30.4,55c-6.4,0-9.6-3.6-9.6-10.3c0-6.7,3.6-10.6,10-10.6
		C32.8,34.1,34.5,34.5,36,35.2z"/>
	<path class="st0" d="M55.5,44c0,7-3.6,11-9.8,11c-5.7,0-9-3.7-9-10.2c0-6.9,3.5-10.7,9.8-10.7C52.2,34.1,55.5,37.7,55.5,44z
		 M41.9,44.1c0,5.3,1.1,7,4.1,7c2.9,0,4.1-1.5,4.1-6c0-5.2-1.1-6.9-4.1-6.9C43,38.2,41.9,39.7,41.9,44.1z"/>
	<path class="st0" d="M74.7,53.5L74.7,54c-1.6,0.5-3.3,0.8-5.1,1l-0.5-0.4c-1.1-2.1-2.2-4.2-3.3-6.4h-2.7l0.2,6.5h-5.1l0.3-6
		l-0.3-14.3l8.5,0c4.4,0,6.8,2.2,6.8,6.1c0,2.5-1.4,4.7-3.6,6.2C71.5,48.9,73,51.2,74.7,53.5z M66,44.5c1.5-0.6,2.3-1.7,2.3-3.5
		c0-2-1-2.9-3.2-3l-1.7,0.1l-0.1,6.2L66,44.5z"/>
	<path class="st0" d="M90.8,50.9l-0.3,3.8H77.1l0.3-6l-0.3-14.3h13.6l0.3,0.4l-0.3,3.8l-4.9-0.2l-3.5,0l-0.1,4.1h3.3l3.3-0.1
		l0.3,0.4l-0.3,3.8l-3.6-0.1h-3l0,1.8l0.1,2.5l3.3,0l5.1-0.2L90.8,50.9z"/>
	<path class="st0" d="M103.2,43.9c2.2,3.3,4.7,6.6,7.3,9.6l-0.1,0.6c-1.7,0.4-3.4,0.7-5.1,0.8l-0.6-0.3c-2.2-3.3-4.4-6.6-6.5-10
		l-0.1,3.5l0.2,6.5h-5.1l0.3-6l-0.3-14.3h5.2l-0.2,9.1l4.9-7l1.1-2h5.5L103.2,43.9z"/>
	<path class="st0" d="M125.8,50.9l-0.3,3.8h-13.4l0.3-6l-0.3-14.3h13.6l0.3,0.4l-0.3,3.8l-4.9-0.2l-3.5,0l-0.1,4.1h3.3l3.3-0.1
		l0.3,0.4l-0.3,3.8l-3.6-0.1h-3l0,1.8l0.1,2.5l3.3,0l5.1-0.2L125.8,50.9z"/>
	<path class="st0" d="M142,50.9l-0.3,3.8h-13.4l0.3-6l-0.3-14.3h13.6l0.3,0.4l-0.3,3.8l-4.9-0.2l-3.5,0l-0.1,4.1h3.3l3.3-0.1
		l0.3,0.4l-0.3,3.8l-3.6-0.1h-3l0,1.8l0.1,2.5l3.3,0l5.1-0.2L142,50.9z"/>
	<path class="st0" d="M153.1,34.4c4.4,0,6.8,2.3,6.8,6.3c0,4.7-3.4,7.8-8.6,7.8h-1.8l0.2,6.2h-5.1l0.3-6l-0.3-14.3L153.1,34.4z
		 M152.2,44.8c1.6-0.5,2.4-1.7,2.4-3.7c0-2.1-1-3-3.2-3.1l-1.7,0.1l-0.2,6.6L152.2,44.8z"/>
	<path class="st0" d="M176,50.9l-0.3,3.8h-13.4l0.3-6l-0.3-14.3h13.6l0.3,0.4l-0.3,3.8l-4.9-0.2l-3.5,0l-0.1,4.1h3.3l3.3-0.1
		l0.3,0.4l-0.3,3.8l-3.6-0.1h-3l0,1.8l0.1,2.5l3.3,0l5.1-0.2L176,50.9z"/>
	<path class="st0" d="M195,53.5l-0.1,0.6c-1.6,0.5-3.3,0.8-5.1,1l-0.5-0.4c-1.1-2.1-2.2-4.2-3.3-6.4h-2.7l0.2,6.5h-5.1l0.3-6
		l-0.3-14.3l8.5,0c4.4,0,6.8,2.2,6.8,6.1c0,2.5-1.3,4.7-3.6,6.2C191.8,48.9,193.3,51.2,195,53.5z M186.3,44.5
		c1.5-0.6,2.3-1.7,2.3-3.5c0-2-1-2.9-3.2-3l-1.7,0.1l-0.1,6.2L186.3,44.5z"/>
</g>
</svg>
