<?xml version="1.0" encoding="utf-8"?>
<!-- Generator: Adobe Illustrator 22.0.1, SVG Export Plug-In . SVG Version: 6.00 Build 0)  -->
<svg version="1.1" id="Capa_1" xmlns="http://www.w3.org/2000/svg" xmlns:xlink="http://www.w3.org/1999/xlink" x="0px" y="0px"
	 viewBox="0 0 200 200" style="enable-background:new 0 0 200 200;" xml:space="preserve">
<style type="text/css">
	.st0{fill:#00205B;}
	.st1{opacity:0.1;enable-background:new    ;}
	.st2{fill:#E1E6E9;}
	.st3{fill:#64798A;}
	.st4{fill:#D5D6DB;}
	.st5{fill:#F6C358;}
	.st6{fill:#FCD462;}
	.st7{fill:#E56353;}
	.st8{fill:#D15241;}
	.st9{fill:#3A556A;}
</style>
<g>
	<circle class="st0" cx="100" cy="100" r="100"/>
	<path class="st1" d="M123.9,59.1l-11.8-11.8c-0.1-0.2-0.2-0.4-0.4-0.5l-3-2.5l-2.9-2.4c-0.7-0.6-1.8-0.5-2.4,0.2l-2.9,3.4l-2.2,2.7
		l-9.3,11H74.3c-1.3,0-2.3,1-2.3,2.3v6.1h-6.2c-1,0-1.8,0.8-1.8,1.8v0.7c0,0.5,0.2,1,0.6,1.3l6,6h-4.8c-1,0-1.8,0.8-1.8,1.8v0.7
		c0,0.6,0.3,1.1,0.7,1.4h0l3.1,3.1l-2.5,2.9c-0.7,0.2-1.2,0.8-1.3,1.5l-9.8,11.6l-4.4,11.8l0,0l-1.3,3.6l20.4,20.4h-3
		c-1,0-1.8,0.8-1.8,1.8v0.7c0,0.5,0.2,1,0.6,1.4h0l6,6h-4.8c-1,0-1.8,0.8-1.8,1.8v0.7c0,0.5,0.3,1,0.7,1.4h0l7.7,7.7
		c0.1,0.1,0.2,0.3,0.3,0.4v0c0,0,0,0,0,0l41.1,41.1c46.4-6.4,82.6-44.6,86-91.9l-48.1-48.1H123.9z"/>
	<path class="st2" d="M151.6,158.6H74.3c-1.3,0-2.3-1-2.3-2.3V61.4c0-1.3,1-2.3,2.3-2.3h77.3V158.6z"/>
	<g>
		<path class="st3" d="M75.6,71.7h-9.8c-1,0-1.8-0.8-1.8-1.8v-0.6c0-1,0.8-1.8,1.8-1.8h9.8c1,0,1.8,0.8,1.8,1.8v0.6
			C77.5,70.9,76.7,71.7,75.6,71.7z"/>
		<path class="st3" d="M75.6,81.5h-9.8c-1,0-1.8-0.8-1.8-1.8v-0.6c0-1,0.8-1.8,1.8-1.8h9.8c1,0,1.8,0.8,1.8,1.8v0.6
			C77.5,80.7,76.7,81.5,75.6,81.5z"/>
		<path class="st3" d="M75.6,91.4h-9.8c-1,0-1.8-0.8-1.8-1.8v-0.6c0-1,0.8-1.8,1.8-1.8h9.8c1,0,1.8,0.8,1.8,1.8v0.6
			C77.5,90.5,76.7,91.4,75.6,91.4z"/>
		<path class="st3" d="M75.6,101.2h-9.8c-1,0-1.8-0.8-1.8-1.8v-0.6c0-1,0.8-1.8,1.8-1.8h9.8c1,0,1.8,0.8,1.8,1.8v0.6
			C77.5,100.3,76.7,101.2,75.6,101.2z"/>
		<path class="st3" d="M75.6,111h-9.8c-1,0-1.8-0.8-1.8-1.8v-0.6c0-1,0.8-1.8,1.8-1.8h9.8c1,0,1.8,0.8,1.8,1.8v0.6
			C77.5,110.2,76.7,111,75.6,111z"/>
		<path class="st3" d="M75.6,120.8h-9.8c-1,0-1.8-0.8-1.8-1.8v-0.6c0-1,0.8-1.8,1.8-1.8h9.8c1,0,1.8,0.8,1.8,1.8v0.6
			C77.5,120,76.7,120.8,75.6,120.8z"/>
		<path class="st3" d="M75.6,130.6h-9.8c-1,0-1.8-0.8-1.8-1.8v-0.6c0-1,0.8-1.8,1.8-1.8h9.8c1,0,1.8,0.8,1.8,1.8v0.6
			C77.5,129.8,76.7,130.6,75.6,130.6z"/>
		<path class="st3" d="M75.6,140.4h-9.8c-1,0-1.8-0.8-1.8-1.8v-0.6c0-1,0.8-1.8,1.8-1.8h9.8c1,0,1.8,0.8,1.8,1.8v0.6
			C77.5,139.6,76.7,140.4,75.6,140.4z"/>
		<path class="st3" d="M75.6,150.2h-9.8c-1,0-1.8-0.8-1.8-1.8v-0.6c0-1,0.8-1.8,1.8-1.8h9.8c1,0,1.8,0.8,1.8,1.8v0.6
			C77.5,149.4,76.7,150.2,75.6,150.2z"/>
	</g>
	<g>
		<rect x="91.9" y="67.4" class="st4" width="47.5" height="5.9"/>
		<rect x="91.9" y="78.6" class="st4" width="47.5" height="5.9"/>
		<rect x="91.9" y="89.7" class="st4" width="47.5" height="5.9"/>
		<rect x="91.9" y="100.8" class="st4" width="47.5" height="5.9"/>
		<rect x="91.9" y="112" class="st4" width="47.5" height="5.9"/>
		<rect x="91.9" y="123.1" class="st4" width="47.5" height="5.9"/>
		<rect x="91.9" y="134.2" class="st4" width="47.5" height="5.9"/>
	</g>
	
		<rect x="46.3" y="72.3" transform="matrix(0.6455 -0.7638 0.7638 0.6455 -30.8682 89.0328)" class="st5" width="68.4" height="11"/>
	
		<rect x="44.2" y="73.2" transform="matrix(0.6455 -0.7638 0.7638 0.6455 -30.2727 86.8561)" class="st6" width="68.4" height="5.7"/>
	<rect x="101.9" y="44.8" transform="matrix(0.6455 -0.7638 0.7638 0.6455 -1.6667 97.0172)" class="st2" width="3.5" height="11"/>
	
		<rect x="104.1" y="49.4" transform="matrix(0.6455 -0.7638 0.7638 0.6455 -2.2878 99.2893)" class="st4" width="3.5" height="5.4"/>
	<path class="st7" d="M111.7,46.7l-5.8-4.9c-0.7-0.6-1.8-0.5-2.4,0.2l-2.9,3.4l8.4,7.1l2.9-3.4C112.5,48.4,112.4,47.3,111.7,46.7z"
		/>
	<path class="st8" d="M111.7,46.7l-3-2.5l-4,4.7l4.3,3.6l2.9-3.4C112.5,48.4,112.4,47.3,111.7,46.7z"/>
	<polyline class="st4" points="62.6,107.5 48.4,115.7 54.2,100.3 	"/>
	<polygon class="st2" points="54.2,100.3 48.4,115.7 58.5,104 	"/>
	<polygon class="st9" points="48.4,115.7 49.7,112.1 51.7,113.8 	"/>
</g>
</svg>
